<svg width="114" height="114" fill="none" xmlns="http://www.w3.org/2000/svg">
  <path fill="#2F426A" stroke="#fff" d="M.707 56.568L56.568.707l55.862 55.861-55.862 55.862z"/>
  <path d="M28.5 84.5l56-56M29 28l56 56" stroke="#fff"/>
  <path d="M28 84.284L56.284 56 84.57 84.284l-28.285 28.284L28 84.284z" fill="#fff" fill-opacity=".7"/>
  <path d="M46.598 84.368c0-3.267.896-5.74 2.688-7.42 1.81-1.699 4.377-2.548 7.7-2.548 3.323 0 5.89.85 7.7 2.548 1.81 1.699 2.716 4.172 2.716 7.42 0 2.165-.41 3.995-1.232 5.488-.803 1.475-1.979 2.595-3.528 3.36l4.396 4.452h-7.364l-2.968-3.332c-3.248-.056-5.75-.924-7.504-2.604-1.736-1.699-2.604-4.153-2.604-7.364zm14.476-.896c0-1.363-.355-2.445-1.064-3.248-.69-.803-1.699-1.204-3.024-1.204s-2.333.401-3.024 1.204c-.69.803-1.036 1.885-1.036 3.248v1.792c0 1.363.345 2.445 1.036 3.248.69.803 1.699 1.204 3.024 1.204s2.333-.401 3.024-1.204c.71-.803 1.064-1.885 1.064-3.248v-1.792z" fill="#2F426A"/>
  <path d="M83.367 47.478h3.267L93.816 66h-2.727l-1.863-4.941H80.64L78.83 66h-2.645l7.182-18.522zm5.022 11.34l-2.16-5.778-1.242-3.348h-.135l-1.215 3.294-2.16 5.832h6.912zM55.727 18.478h2.565V37h-2.565V18.478zM29.544 65.324c-2.988 0-5.238-.792-6.75-2.376-1.512-1.602-2.268-4.005-2.268-7.209 0-3.204.756-5.598 2.268-7.182 1.512-1.602 3.762-2.403 6.75-2.403 2.412 0 4.338.603 5.778 1.809 1.458 1.188 2.187 2.925 2.187 5.211H34.89c0-1.584-.477-2.781-1.43-3.591-.937-.828-2.242-1.242-3.916-1.242-2.178 0-3.78.576-4.806 1.728-1.026 1.152-1.548 3.024-1.566 5.616v.054c0 2.61.513 4.5 1.54 5.67 1.025 1.152 2.636 1.728 4.832 1.728 1.71 0 3.042-.405 3.996-1.215.972-.81 1.458-1.998 1.458-3.564h2.511c0 2.304-.72 4.041-2.16 5.211-1.44 1.17-3.375 1.755-5.805 1.755z" fill="#fff"/>
</svg>
