<svg width="114" height="115" fill="none" xmlns="http://www.w3.org/2000/svg">
  <path fill="#42557A" stroke="#fff" d="M.707 57.432L56.57 1.571l55.861 55.861-55.861 55.861z"/>
  <path d="M57.773 34.9c3.192 0 6.006.525 8.442 1.575 2.436 1.05 4.326 2.562 5.67 4.536 1.344 1.932 2.016 4.179 2.016 6.741 0 1.638-.357 3.108-1.07 4.41-.715 1.26-1.555 2.331-2.52 3.213-.967.882-2.185 1.848-3.655 2.898-1.218.924-2.12 1.659-2.709 2.205-.546.546-.819 1.113-.819 1.701v1.323H52.355v-3.15c0-1.008.315-1.911.945-2.709.63-.84 1.617-1.89 2.961-3.15 1.386-1.218 2.436-2.31 3.15-3.276.756-.966 1.134-2.037 1.134-3.213 0-1.218-.378-2.247-1.134-3.087-.756-.882-1.764-1.323-3.024-1.323-2.73 0-4.095 1.764-4.095 5.292 0 .756.021 1.323.063 1.701H40.763c-.042-.294-.084-.63-.126-1.008-.042-.378-.063-.84-.063-1.386 0-2.688.735-5.019 2.205-6.993 1.47-2.016 3.507-3.57 6.111-4.662 2.646-1.092 5.607-1.638 8.883-1.638zM51.6 79V67.345h12.474V79H51.6z" fill="#182D5A"/>
</svg>
